<mxfile host="app.diagrams.net" modified="2023-04-06T15:19:36.775Z" agent="Mozilla/5.0 (X11; Linux x86_64) AppleWebKit/537.36 (KHTML, like Gecko) Chrome/111.0.0.0 Safari/537.36" etag="5qIftR8BovmkapIGFwTm" version="21.1.4" type="device">
  <diagram name="Сторінка-1" id="xTo7LiLZvz-YdanKkgFt">
    <mxGraphModel dx="3014" dy="746" grid="1" gridSize="10" guides="1" tooltips="1" connect="1" arrows="1" fold="1" page="1" pageScale="1" pageWidth="827" pageHeight="1169" math="0" shadow="0">
      <root>
        <mxCell id="0" />
        <mxCell id="1" parent="0" />
        <mxCell id="HVoTeRBBNDDQcVebBhWy-1" value="ioc.core.ts" style="swimlane;whiteSpace=wrap;html=1;rounded=1;dashed=1;fillColor=#dae8fc;strokeColor=#6c8ebf;" vertex="1" parent="1">
          <mxGeometry x="-1340" y="350" width="120" height="460" as="geometry" />
        </mxCell>
        <mxCell id="HVoTeRBBNDDQcVebBhWy-28" value="fastify.framework.adapter.ts" style="rounded=1;whiteSpace=wrap;html=1;fillColor=#d5e8d4;strokeColor=#82b366;" vertex="1" parent="1">
          <mxGeometry x="-970" y="670" width="220" height="40" as="geometry" />
        </mxCell>
        <mxCell id="HVoTeRBBNDDQcVebBhWy-29" style="edgeStyle=orthogonalEdgeStyle;rounded=1;orthogonalLoop=1;jettySize=auto;html=1;entryX=1;entryY=0.5;entryDx=0;entryDy=0;fillColor=#dae8fc;strokeColor=#6c8ebf;" edge="1" parent="1" source="HVoTeRBBNDDQcVebBhWy-30" target="HVoTeRBBNDDQcVebBhWy-28">
          <mxGeometry relative="1" as="geometry" />
        </mxCell>
        <mxCell id="HVoTeRBBNDDQcVebBhWy-30" value="abstract.framework.adapter.ts" style="rounded=1;whiteSpace=wrap;html=1;fillColor=#dae8fc;strokeColor=#6c8ebf;" vertex="1" parent="1">
          <mxGeometry x="-660" y="670" width="180" height="40" as="geometry" />
        </mxCell>
        <mxCell id="HVoTeRBBNDDQcVebBhWy-34" value="extends" style="edgeLabel;html=1;align=center;verticalAlign=middle;resizable=0;points=[];labelBackgroundColor=#CDA2BE;" vertex="1" connectable="0" parent="1">
          <mxGeometry x="-699.9999999999999" y="690" as="geometry" />
        </mxCell>
        <mxCell id="HVoTeRBBNDDQcVebBhWy-64" value="&lt;span style=&quot;color: rgb(0, 0, 0); font-family: Helvetica; font-size: 11px; font-style: normal; font-variant-ligatures: normal; font-variant-caps: normal; font-weight: 400; letter-spacing: normal; orphans: 2; text-align: center; text-indent: 0px; text-transform: none; widows: 2; word-spacing: 0px; -webkit-text-stroke-width: 0px; text-decoration-thickness: initial; text-decoration-style: initial; text-decoration-color: initial; float: none; display: inline !important;&quot;&gt;bind&lt;/span&gt;&lt;br style=&quot;border-color: var(--border-color); color: rgb(0, 0, 0); font-family: Helvetica; font-size: 11px; font-style: normal; font-variant-ligatures: normal; font-variant-caps: normal; font-weight: 400; letter-spacing: normal; orphans: 2; text-align: center; text-indent: 0px; text-transform: none; widows: 2; word-spacing: 0px; -webkit-text-stroke-width: 0px; text-decoration-thickness: initial; text-decoration-style: initial; text-decoration-color: initial;&quot;&gt;&lt;span style=&quot;color: rgb(0, 0, 0); font-family: Helvetica; font-size: 11px; font-style: normal; font-variant-ligatures: normal; font-variant-caps: normal; font-weight: 400; letter-spacing: normal; orphans: 2; text-align: center; text-indent: 0px; text-transform: none; widows: 2; word-spacing: 0px; -webkit-text-stroke-width: 0px; text-decoration-thickness: initial; text-decoration-style: initial; text-decoration-color: initial; float: none; display: inline !important;&quot;&gt;Symbol(&#39;ExpressFrameworkAdapter&#39;)&lt;/span&gt;" style="edgeStyle=orthogonalEdgeStyle;rounded=0;orthogonalLoop=1;jettySize=auto;html=1;fillColor=#d5e8d4;strokeColor=#82b366;labelBackgroundColor=#B5739D;" edge="1" parent="1" source="HVoTeRBBNDDQcVebBhWy-53">
          <mxGeometry relative="1" as="geometry">
            <mxPoint x="-1220" y="420" as="targetPoint" />
          </mxGeometry>
        </mxCell>
        <mxCell id="HVoTeRBBNDDQcVebBhWy-53" value="express.framework.adapter.ts" style="rounded=1;whiteSpace=wrap;html=1;fillColor=#d5e8d4;strokeColor=#82b366;" vertex="1" parent="1">
          <mxGeometry x="-970" y="400" width="220" height="40" as="geometry" />
        </mxCell>
        <mxCell id="HVoTeRBBNDDQcVebBhWy-54" style="edgeStyle=orthogonalEdgeStyle;rounded=1;orthogonalLoop=1;jettySize=auto;html=1;entryX=1;entryY=0.5;entryDx=0;entryDy=0;fillColor=#dae8fc;strokeColor=#6c8ebf;" edge="1" parent="1" source="HVoTeRBBNDDQcVebBhWy-55" target="HVoTeRBBNDDQcVebBhWy-53">
          <mxGeometry relative="1" as="geometry" />
        </mxCell>
        <mxCell id="HVoTeRBBNDDQcVebBhWy-55" value="abstract.framework.adapter.ts" style="rounded=1;whiteSpace=wrap;html=1;fillColor=#dae8fc;strokeColor=#6c8ebf;" vertex="1" parent="1">
          <mxGeometry x="-660" y="400" width="180" height="40" as="geometry" />
        </mxCell>
        <mxCell id="HVoTeRBBNDDQcVebBhWy-56" value="methods and properties" style="swimlane;whiteSpace=wrap;html=1;fillColor=#f8cecc;strokeColor=#b85450;rounded=1;" vertex="1" parent="1">
          <mxGeometry x="-597" y="460" width="390" height="190" as="geometry" />
        </mxCell>
        <mxCell id="HVoTeRBBNDDQcVebBhWy-57" value="protected abstract&amp;nbsp;_BASE_API_URL: string" style="rounded=1;whiteSpace=wrap;html=1;fillColor=#fff2cc;strokeColor=#d6b656;" vertex="1" parent="HVoTeRBBNDDQcVebBhWy-56">
          <mxGeometry x="10" y="40" width="370" height="30" as="geometry" />
        </mxCell>
        <mxCell id="HVoTeRBBNDDQcVebBhWy-58" value="protected abstract&amp;nbsp;_framework: IFramework" style="rounded=1;whiteSpace=wrap;html=1;fillColor=#fff2cc;strokeColor=#d6b656;" vertex="1" parent="HVoTeRBBNDDQcVebBhWy-56">
          <mxGeometry x="12" y="90" width="370" height="30" as="geometry" />
        </mxCell>
        <mxCell id="HVoTeRBBNDDQcVebBhWy-59" style="edgeStyle=orthogonalEdgeStyle;rounded=1;orthogonalLoop=1;jettySize=auto;html=1;fillColor=#fff2cc;strokeColor=#d6b656;dashed=1;" edge="1" parent="HVoTeRBBNDDQcVebBhWy-56" source="HVoTeRBBNDDQcVebBhWy-60">
          <mxGeometry relative="1" as="geometry">
            <mxPoint x="-40" y="-20" as="targetPoint" />
          </mxGeometry>
        </mxCell>
        <mxCell id="HVoTeRBBNDDQcVebBhWy-60" value="protected abstract&amp;nbsp;_loggerService(): ILoggerService" style="rounded=1;whiteSpace=wrap;html=1;fillColor=#fff2cc;strokeColor=#d6b656;" vertex="1" parent="HVoTeRBBNDDQcVebBhWy-56">
          <mxGeometry x="10" y="140" width="370" height="30" as="geometry" />
        </mxCell>
        <mxCell id="HVoTeRBBNDDQcVebBhWy-61" style="edgeStyle=orthogonalEdgeStyle;rounded=1;orthogonalLoop=1;jettySize=auto;html=1;exitX=0;exitY=0.5;exitDx=0;exitDy=0;fillColor=#fff2cc;strokeColor=#d6b656;dashed=1;entryX=0.125;entryY=0.975;entryDx=0;entryDy=0;entryPerimeter=0;" edge="1" parent="1" source="HVoTeRBBNDDQcVebBhWy-57" target="HVoTeRBBNDDQcVebBhWy-55">
          <mxGeometry relative="1" as="geometry">
            <mxPoint x="-637" y="450" as="targetPoint" />
            <Array as="points">
              <mxPoint x="-637" y="520" />
              <mxPoint x="-637" y="439" />
            </Array>
          </mxGeometry>
        </mxCell>
        <mxCell id="HVoTeRBBNDDQcVebBhWy-62" value="extends" style="edgeLabel;html=1;align=center;verticalAlign=middle;resizable=0;points=[];labelBackgroundColor=#CDA2BE;" vertex="1" connectable="0" parent="1">
          <mxGeometry x="-739.9999999999999" y="420" as="geometry">
            <mxPoint x="41" as="offset" />
          </mxGeometry>
        </mxCell>
        <mxCell id="HVoTeRBBNDDQcVebBhWy-63" style="edgeStyle=orthogonalEdgeStyle;rounded=1;orthogonalLoop=1;jettySize=auto;html=1;entryX=0.128;entryY=1;entryDx=0;entryDy=0;entryPerimeter=0;exitX=0;exitY=0.5;exitDx=0;exitDy=0;fillColor=#fff2cc;strokeColor=#d6b656;dashed=1;" edge="1" parent="1" source="HVoTeRBBNDDQcVebBhWy-58" target="HVoTeRBBNDDQcVebBhWy-55">
          <mxGeometry relative="1" as="geometry" />
        </mxCell>
        <mxCell id="HVoTeRBBNDDQcVebBhWy-66" value="&lt;span style=&quot;color: rgb(0, 0, 0); font-family: Helvetica; font-size: 11px; font-style: normal; font-variant-ligatures: normal; font-variant-caps: normal; font-weight: 400; letter-spacing: normal; orphans: 2; text-align: center; text-indent: 0px; text-transform: none; widows: 2; word-spacing: 0px; -webkit-text-stroke-width: 0px; text-decoration-thickness: initial; text-decoration-style: initial; text-decoration-color: initial; float: none; display: inline !important;&quot;&gt;bind&lt;/span&gt;&lt;br style=&quot;border-color: var(--border-color); color: rgb(0, 0, 0); font-family: Helvetica; font-size: 11px; font-style: normal; font-variant-ligatures: normal; font-variant-caps: normal; font-weight: 400; letter-spacing: normal; orphans: 2; text-align: center; text-indent: 0px; text-transform: none; widows: 2; word-spacing: 0px; -webkit-text-stroke-width: 0px; text-decoration-thickness: initial; text-decoration-style: initial; text-decoration-color: initial;&quot;&gt;&lt;span style=&quot;color: rgb(0, 0, 0); font-family: Helvetica; font-size: 11px; font-style: normal; font-variant-ligatures: normal; font-variant-caps: normal; font-weight: 400; letter-spacing: normal; orphans: 2; text-align: center; text-indent: 0px; text-transform: none; widows: 2; word-spacing: 0px; -webkit-text-stroke-width: 0px; text-decoration-thickness: initial; text-decoration-style: initial; text-decoration-color: initial; float: none; display: inline !important;&quot;&gt;Symbol(&#39;FastifyFrameworkAdapter&#39;)&lt;/span&gt;" style="edgeStyle=orthogonalEdgeStyle;rounded=0;orthogonalLoop=1;jettySize=auto;html=1;fillColor=#d5e8d4;strokeColor=#82b366;labelBackgroundColor=#B5739D;exitX=0;exitY=0.5;exitDx=0;exitDy=0;" edge="1" parent="1" source="HVoTeRBBNDDQcVebBhWy-28">
          <mxGeometry relative="1" as="geometry">
            <mxPoint x="-1220" y="690" as="targetPoint" />
            <mxPoint x="-990" y="690" as="sourcePoint" />
            <mxPoint as="offset" />
          </mxGeometry>
        </mxCell>
        <mxCell id="HVoTeRBBNDDQcVebBhWy-67" value="{framework-name}.framework.adapter.ts" style="rounded=1;whiteSpace=wrap;html=1;fillColor=#d5e8d4;strokeColor=#82b366;" vertex="1" parent="1">
          <mxGeometry x="-970" y="720" width="220" height="40" as="geometry" />
        </mxCell>
        <mxCell id="HVoTeRBBNDDQcVebBhWy-68" style="edgeStyle=orthogonalEdgeStyle;rounded=1;orthogonalLoop=1;jettySize=auto;html=1;entryX=1;entryY=0.5;entryDx=0;entryDy=0;fillColor=#dae8fc;strokeColor=#6c8ebf;" edge="1" parent="1" source="HVoTeRBBNDDQcVebBhWy-69" target="HVoTeRBBNDDQcVebBhWy-67">
          <mxGeometry relative="1" as="geometry" />
        </mxCell>
        <mxCell id="HVoTeRBBNDDQcVebBhWy-69" value="abstract.framework.adapter.ts" style="rounded=1;whiteSpace=wrap;html=1;fillColor=#dae8fc;strokeColor=#6c8ebf;" vertex="1" parent="1">
          <mxGeometry x="-660" y="720" width="180" height="40" as="geometry" />
        </mxCell>
        <mxCell id="HVoTeRBBNDDQcVebBhWy-70" value="extends" style="edgeLabel;html=1;align=center;verticalAlign=middle;resizable=0;points=[];labelBackgroundColor=#CDA2BE;" vertex="1" connectable="0" parent="1">
          <mxGeometry x="-699.9999999999999" y="740" as="geometry" />
        </mxCell>
        <mxCell id="HVoTeRBBNDDQcVebBhWy-71" value="&lt;span style=&quot;color: rgb(0, 0, 0); font-family: Helvetica; font-size: 11px; font-style: normal; font-variant-ligatures: normal; font-variant-caps: normal; font-weight: 400; letter-spacing: normal; orphans: 2; text-align: center; text-indent: 0px; text-transform: none; widows: 2; word-spacing: 0px; -webkit-text-stroke-width: 0px; text-decoration-thickness: initial; text-decoration-style: initial; text-decoration-color: initial; float: none; display: inline !important;&quot;&gt;bind&lt;/span&gt;&lt;br style=&quot;border-color: var(--border-color); color: rgb(0, 0, 0); font-family: Helvetica; font-size: 11px; font-style: normal; font-variant-ligatures: normal; font-variant-caps: normal; font-weight: 400; letter-spacing: normal; orphans: 2; text-align: center; text-indent: 0px; text-transform: none; widows: 2; word-spacing: 0px; -webkit-text-stroke-width: 0px; text-decoration-thickness: initial; text-decoration-style: initial; text-decoration-color: initial;&quot;&gt;&lt;span style=&quot;color: rgb(0, 0, 0); font-family: Helvetica; font-size: 11px; font-style: normal; font-variant-ligatures: normal; font-variant-caps: normal; font-weight: 400; letter-spacing: normal; orphans: 2; text-align: center; text-indent: 0px; text-transform: none; widows: 2; word-spacing: 0px; -webkit-text-stroke-width: 0px; text-decoration-thickness: initial; text-decoration-style: initial; text-decoration-color: initial; float: none; display: inline !important;&quot;&gt;Symbol(&#39;{Framework-name}ProtocolAdapter&#39;)&lt;/span&gt;" style="edgeStyle=orthogonalEdgeStyle;rounded=0;orthogonalLoop=1;jettySize=auto;html=1;fillColor=#d5e8d4;strokeColor=#82b366;labelBackgroundColor=#B5739D;exitX=0;exitY=0.5;exitDx=0;exitDy=0;" edge="1" parent="1" source="HVoTeRBBNDDQcVebBhWy-67">
          <mxGeometry relative="1" as="geometry">
            <mxPoint x="-1220" y="740" as="targetPoint" />
            <mxPoint x="-990" y="740" as="sourcePoint" />
          </mxGeometry>
        </mxCell>
      </root>
    </mxGraphModel>
  </diagram>
</mxfile>
